<?xml version="1.0" encoding="UTF-8"?>
<!DOCTYPE svg PUBLIC "-//W3C//DTD SVG 1.1//EN" "http://www.w3.org/Graphics/SVG/1.1/DTD/svg11.dtd">
<svg xmlns="http://www.w3.org/2000/svg" xmlns:xlink="http://www.w3.org/1999/xlink" version="1.1" width="441px" height="351px" viewBox="-0.5 -0.5 441 351"><defs/><g><rect x="10" y="10.5" width="420" height="330" rx="49.5" ry="49.5" fill="rgb(255, 255, 255)" stroke="rgb(0, 0, 0)" pointer-events="all"/><rect x="120" y="143" width="48.1" height="65" fill="none" stroke="none" pointer-events="all"/><path d="M 120 152.58 C 120.38 150.32 122.85 148.19 126.96 146.57 C 136.35 143.03 150.79 143 160.25 146.51 C 164.72 148.09 167.52 150.25 168.1 152.58 L 168.1 198.11 C 167.66 200.59 164.71 202.91 159.87 204.56 C 150.06 208 135.88 207.67 126.96 203.8 C 123.02 202.26 120.57 200.26 120 198.11 Z M 160.51 153.84 C 161.47 152.9 161.47 151.88 160.51 150.94 C 158.44 148.75 151.71 147.24 144.05 147.24 C 136.39 147.24 129.66 148.75 127.59 150.94 C 126.63 151.88 126.63 152.9 127.59 153.84 C 129.66 156.03 136.39 157.54 144.05 157.54 C 151.71 157.54 158.44 156.03 160.51 153.84 Z" fill="#00188d" stroke="none" pointer-events="all"/><path d="M 144.05 143.65 Q 150 83 190 58 Q 230 33 260 53 Q 290 73 302.81 137.4" fill="none" stroke="rgb(0, 0, 0)" stroke-miterlimit="10" pointer-events="stroke"/><path d="M 303.83 142.55 L 299.03 136.37 L 302.81 137.4 L 305.9 135.01 Z" fill="rgb(0, 0, 0)" stroke="rgb(0, 0, 0)" stroke-miterlimit="10" pointer-events="all"/><path d="M 304.05 207.35 Q 304 273 272 283 Q 240 293 210 283 Q 180 273 147.11 212.94" fill="none" stroke="rgb(0, 0, 0)" stroke-miterlimit="10" pointer-events="stroke"/><path d="M 144.59 208.33 L 151.02 212.79 L 147.11 212.94 L 144.88 216.15 Z" fill="rgb(0, 0, 0)" stroke="rgb(0, 0, 0)" stroke-miterlimit="10" pointer-events="all"/><rect x="280" y="143" width="48.1" height="65" fill="none" stroke="none" pointer-events="all"/><path d="M 280 152.58 C 280.38 150.32 282.85 148.19 286.96 146.57 C 296.35 143.03 310.79 143 320.25 146.51 C 324.72 148.09 327.52 150.25 328.1 152.58 L 328.1 198.11 C 327.66 200.59 324.71 202.91 319.87 204.56 C 310.06 208 295.88 207.67 286.96 203.8 C 283.02 202.26 280.57 200.26 280 198.11 Z M 320.51 153.84 C 321.47 152.9 321.47 151.88 320.51 150.94 C 318.44 148.75 311.71 147.24 304.05 147.24 C 296.39 147.24 289.66 148.75 287.59 150.94 C 286.63 151.88 286.63 152.9 287.59 153.84 C 289.66 156.03 296.39 157.54 304.05 157.54 C 311.71 157.54 318.44 156.03 320.51 153.84 Z" fill="#d80073" stroke="#a50040" stroke-miterlimit="10" pointer-events="all"/></g></svg>