<?xml version="1.0" encoding="UTF-8"?>
<!DOCTYPE svg PUBLIC "-//W3C//DTD SVG 1.1//EN" "http://www.w3.org/Graphics/SVG/1.1/DTD/svg11.dtd">
<svg xmlns="http://www.w3.org/2000/svg" xmlns:xlink="http://www.w3.org/1999/xlink" version="1.1" width="441px" height="351px" viewBox="-0.5 -0.5 441 351"><defs/><g><rect x="10" y="10.5" width="420" height="330" rx="49.5" ry="49.5" fill="rgb(255, 255, 255)" stroke="rgb(0, 0, 0)" pointer-events="all"/><rect x="355" y="123" width="61" height="112" fill="none" stroke="none" pointer-events="all"/><path d="M 381 141.92 C 385.97 142.33 390.32 138.5 390.71 133.4 C 391.09 128.28 387.38 123.81 382.42 123.4 C 377.45 123 373.11 126.83 372.71 131.94 C 372.33 137.06 376.03 141.52 381 141.92" fill="#f0a30a" stroke="#bd7000" stroke-miterlimit="10" pointer-events="all"/><path d="M 383.47 160.56 C 386.28 161.1 388.4 163.67 388.4 166.73 C 388.4 170.19 385.67 173.01 382.31 173.01 L 362.55 173.01 C 360.42 173.01 358.68 171.23 358.68 169.03 C 358.68 168.49 358.78 167.98 358.96 167.51 L 361.11 162.36 L 384.9 144.81 L 373.55 144.81 C 369.2 144.68 366.14 146.24 364.39 149.78 C 363.19 152.16 356.88 166.69 356.88 166.69 C 356.6 167.41 356.45 168.2 356.45 169.02 C 356.45 172.48 359.19 175.3 362.55 175.3 L 370.27 175.3 L 368 190.72 L 356.01 226.37 C 355 229.54 356.67 232.91 359.72 233.96 C 362.76 235 366.07 233.28 367.08 230.13 L 380.85 189.92 C 383.53 194.41 388.89 202.47 389.79 203.99 C 390 206.52 391.92 228.83 391.92 228.83 C 392.21 232.15 395.05 234.56 398.24 234.28 C 401.44 234 403.82 231.07 403.53 227.78 L 401.27 201.53 C 401.19 200.59 400.9 199.7 400.42 198.9 L 390.51 182.37 L 392.08 161.62 C 392.08 161.62 394.43 169.83 394.6 170.43 C 395.11 172.12 396.24 173.33 397.4 174.31 C 398.08 174.87 409.65 182.97 409.65 182.97 C 410.29 183.27 410.82 183.54 411.51 183.6 C 413.75 183.79 415.71 182.06 415.89 179.75 C 416 178.27 415.36 176.92 414.3 176.08 C 414.3 176.08 402.78 167.94 402.31 167.58 C 401.94 167.29 401.64 166.76 401.55 166.49 L 396.99 149.58 C 396.25 147.02 393.75 144.82 390.59 144.82 L 389.22 144.82 L 383.47 160.56 Z" fill="#f0a30a" stroke="#bd7000" stroke-miterlimit="10" pointer-events="all"/><path d="M 382.31 170.71 C 384.44 170.71 386.17 168.93 386.17 166.73 C 386.17 164.67 384.65 163 382.72 162.79 L 379.9 170.74 L 382.31 170.71 Z" fill="#f0a30a" stroke="#bd7000" stroke-miterlimit="10" pointer-events="all"/><path d="M 185 129 L 273 129 L 273 217 L 185 217 Z" fill="#dae8fc" stroke="none" pointer-events="all"/><path d="M 205.17 146.1 L 205.17 190.47 L 196.64 147.85 Z M 244.11 141.89 L 250.85 147.88 L 244.11 147.88 Z M 207.68 140.35 L 241.59 140.35 L 241.59 149.14 C 241.59 149.47 241.73 149.79 241.96 150.03 C 242.2 150.26 242.52 150.39 242.85 150.39 L 252.9 150.39 L 252.9 179.28 L 255.41 179.28 L 255.41 149.14 C 255.41 148.78 255.25 148.44 254.99 148.2 L 243.68 138.15 C 243.45 137.95 243.16 137.83 242.85 137.83 L 206.43 137.83 C 206.09 137.83 205.77 137.97 205.54 138.2 C 205.3 138.44 205.17 138.76 205.17 139.09 L 205.17 143.53 L 194.91 145.65 C 194.24 145.79 193.8 146.44 193.94 147.12 L 205.2 203.39 L 205.22 203.38 C 205.34 203.96 205.82 204.4 206.43 204.4 L 236.57 204.4 L 236.57 201.89 L 207.68 201.89 Z M 212.71 186.82 L 235.31 186.82 L 235.31 184.3 L 212.71 184.3 Z M 212.71 179.28 L 244.11 179.28 L 244.11 176.77 L 212.71 176.77 Z M 212.71 156.67 L 236.57 156.67 L 236.57 154.16 L 212.71 154.16 Z M 212.71 171.74 L 246.62 171.74 L 246.62 169.23 L 212.71 169.23 Z M 224.01 164.21 L 246.62 164.21 L 246.62 161.7 L 224.01 161.7 Z M 212.71 164.21 L 221.5 164.21 L 221.5 161.7 L 212.71 161.7 Z M 261.69 198.12 L 255.41 198.12 C 254.71 198.12 254.15 198.68 254.15 199.37 L 254.15 205.65 L 247.87 205.65 L 247.87 199.37 C 247.87 198.68 247.31 198.12 246.62 198.12 L 240.34 198.12 L 240.34 191.84 L 246.62 191.84 C 247.31 191.84 247.87 191.28 247.87 190.58 L 247.87 184.3 L 254.15 184.3 L 254.15 190.58 C 254.15 191.28 254.71 191.84 255.41 191.84 L 261.69 191.84 Z M 262.94 189.33 L 256.66 189.33 L 256.66 183.05 C 256.66 182.35 256.1 181.79 255.41 181.79 L 246.62 181.79 C 245.92 181.79 245.36 182.35 245.36 183.05 L 245.36 189.33 L 239.08 189.33 C 238.39 189.33 237.83 189.89 237.83 190.58 L 237.83 199.37 C 237.83 200.07 238.39 200.63 239.08 200.63 L 245.36 200.63 L 245.36 206.91 C 245.36 207.6 245.92 208.17 246.62 208.17 L 255.41 208.17 C 256.1 208.17 256.66 207.6 256.66 206.91 L 256.66 200.63 L 262.94 200.63 C 263.64 200.63 264.2 200.07 264.2 199.37 L 264.2 190.58 C 264.2 189.89 263.64 189.33 262.94 189.33 Z" fill="#6c8ebf" stroke="none" pointer-events="all"/><path d="M 110 176 L 222.5 176 Q 232.5 176 242.5 176.06 L 342.7 176.7" fill="none" stroke="rgb(0, 0, 0)" stroke-width="3" stroke-miterlimit="10" stroke-dasharray="9 9" pointer-events="stroke"/><path d="M 349.45 176.74 L 340.42 181.18 L 342.7 176.7 L 340.48 172.18 Z" fill="rgb(0, 0, 0)" stroke="rgb(0, 0, 0)" stroke-width="3" stroke-miterlimit="10" pointer-events="all"/><rect x="30" y="135" width="80" height="82" fill="none" stroke="none" pointer-events="all"/><path d="M 80.69 161.25 C 80.69 167.21 75.9 172.05 69.99 172.05 C 64.08 172.05 59.3 167.22 59.3 161.25 C 59.3 155.28 64.08 150.44 69.99 150.44 C 75.9 150.44 80.69 155.28 80.69 161.25 Z" fill="#0050ef" stroke="#001dbc" stroke-miterlimit="10" pointer-events="all"/><path d="M 70 135 C 74.75 135 82.52 137.01 86.85 141.79 L 81.02 153.1 C 78.48 149.78 74.49 147.64 70.01 147.64 C 65.58 147.64 61.64 149.74 59.09 153 L 53.14 142.04 C 58.15 137 65.06 135 70 135 Z M 68.32 145.83 L 71.65 145.83 L 71.65 143.03 L 74.42 143.03 L 74.42 139.67 L 71.65 139.67 L 71.65 136.87 L 68.32 136.87 L 68.32 139.67 L 65.56 139.67 L 65.56 143.03 L 68.32 143.03 L 68.32 145.83 Z" fill="#0050ef" stroke="#001dbc" stroke-miterlimit="10" pointer-events="all"/><path d="M 55.94 191.45 L 58.68 191.45 L 54.77 204.99 L 85.33 204.99 L 81.43 191.45 L 84.18 191.45 L 88.1 204.99 L 97.09 204.99 L 90.94 184.48 C 89.99 181.09 85.78 175.13 78.53 174.95 L 61.84 174.94 C 54.42 174.97 50.13 181.05 49.16 184.48 L 42.9 205 L 52.02 205 L 55.94 191.45 Z" fill="#0050ef" stroke="#001dbc" stroke-miterlimit="10" pointer-events="all"/><rect x="30" y="209.32" width="80" height="7.68" fill="#0050ef" stroke="#001dbc" pointer-events="all"/></g></svg>